<svg width="183" height="41" viewBox="0 0 183 41" fill="none" xmlns="http://www.w3.org/2000/svg">
<path d="M171.18 2.3667H177.447V8.7667H182.647V14.0556H177.447V24.0556C177.447 24.8556 177.58 25.4334 177.936 25.7889C178.292 26.1445 178.869 26.3222 179.669 26.3222H182.914V31.6111H177.714C173.358 31.6111 171.18 29.4334 171.18 25.0778V2.3667Z" fill="white"/>
<path d="M156.849 8.76667V6.76666C156.849 4.76667 157.426 3.21111 158.582 2.14444C159.737 1.07778 161.426 0.5 163.737 0.5H168.849V5.83333H164.982C164.315 5.83333 163.826 6.01111 163.56 6.27777C163.249 6.58889 163.115 7.07778 163.115 7.7V8.76667H168.849V14.0556H163.115V31.6111H156.849V14.0556H153.071V8.76667H156.849Z" fill="white"/>
<path d="M133.62 30.4555C131.798 29.4778 130.375 28.1 129.398 26.3222C128.42 24.5444 127.931 22.5 127.931 20.1889C127.931 17.8778 128.42 15.8333 129.398 14.0556C130.375 12.2778 131.798 10.9444 133.62 9.96667C135.442 8.98889 137.575 8.5 139.975 8.5C142.375 8.5 144.464 8.98889 146.286 9.96667C148.109 10.9444 149.531 12.2778 150.509 14.0556C151.486 15.8333 152.02 17.8778 152.02 20.1889C152.02 22.5444 151.486 24.5889 150.509 26.3667C149.531 28.1444 148.109 29.4778 146.286 30.4555C144.464 31.4333 142.375 31.8778 139.975 31.8778C137.575 31.8778 135.442 31.4333 133.62 30.4555ZM144.109 24.9444C145.131 23.7444 145.664 22.1444 145.664 20.1889C145.664 18.2333 145.131 16.6778 144.109 15.4333C143.086 14.2333 141.709 13.6111 139.975 13.6111C138.242 13.6111 136.864 14.2333 135.842 15.4333C134.82 16.6778 134.331 18.2333 134.331 20.1889C134.331 22.1444 134.82 23.7444 135.842 24.9444C136.864 26.1889 138.242 26.7667 139.975 26.7667C141.709 26.7667 143.086 26.1889 144.109 24.9444Z" fill="white"/>
<path d="M109.929 24.0109C110.018 25.0331 110.507 25.8331 111.396 26.4553C112.284 27.0775 113.396 27.3887 114.818 27.3887C116.151 27.3887 117.173 27.2109 117.973 26.7664C118.729 26.322 119.129 25.6998 119.129 24.8998C119.129 24.322 118.951 23.8776 118.596 23.5664C118.24 23.2998 117.707 23.0776 117.084 22.9442C116.418 22.8109 115.351 22.6331 113.884 22.4553C111.84 22.1887 110.196 21.8776 108.862 21.4331C107.529 21.0331 106.462 20.3664 105.662 19.4776C104.862 18.5887 104.462 17.4331 104.462 15.922C104.462 14.4553 104.862 13.1664 105.662 12.0109C106.462 10.8553 107.618 9.96644 109.129 9.34422C110.596 8.722 112.284 8.41089 114.24 8.41089C117.351 8.45533 119.84 9.122 121.751 10.4109C123.662 11.7442 124.684 13.522 124.862 15.8331H118.907C118.818 14.9887 118.329 14.2776 117.529 13.7442C116.729 13.2109 115.662 12.8998 114.418 12.8998C113.218 12.8998 112.24 13.122 111.529 13.5664C110.818 14.0109 110.462 14.6331 110.462 15.3442C110.462 15.8776 110.64 16.2776 111.04 16.5442C111.396 16.8109 111.929 17.0331 112.551 17.122C113.173 17.2553 114.196 17.3887 115.662 17.522C118.729 17.8776 121.084 18.5442 122.729 19.522C124.373 20.4998 125.218 22.1442 125.218 24.4553C125.218 25.9664 124.773 27.2553 123.884 28.3664C122.996 29.522 121.796 30.3664 120.24 30.9887C118.684 31.6109 116.907 31.8775 114.862 31.8775C111.662 31.8775 109.085 31.2109 107.129 29.7887C105.129 28.3664 104.062 26.4553 103.973 24.0109H109.929Z" fill="white"/>
<path d="M83.1425 30.4555C81.3203 29.4778 79.8981 28.1 78.9203 26.3222C77.9425 24.5444 77.4536 22.5 77.4536 20.1889C77.4536 17.8778 77.9425 15.8333 78.9203 14.0556C79.8981 12.2778 81.3203 10.9444 83.1425 9.96667C84.9647 8.98889 87.098 8.5 89.498 8.5C91.898 8.5 93.9869 8.98889 95.8092 9.96667C97.6314 10.9444 99.0536 12.2778 100.031 14.0556C101.009 15.8333 101.542 17.8778 101.542 20.1889C101.542 22.5444 101.009 24.5889 100.031 26.3667C99.0536 28.1444 97.6314 29.4778 95.8092 30.4555C93.9869 31.4333 91.898 31.8778 89.498 31.8778C87.098 31.8778 84.9647 31.4333 83.1425 30.4555ZM93.6314 24.9444C94.6536 23.7444 95.1869 22.1444 95.1869 20.1889C95.1869 18.2333 94.6536 16.6778 93.6314 15.4333C92.6092 14.2333 91.2314 13.6111 89.498 13.6111C87.7647 13.6111 86.3869 14.2333 85.3647 15.4333C84.3425 16.6778 83.8536 18.2333 83.8536 20.1889C83.8536 22.1444 84.3425 23.7444 85.3647 24.9444C86.3869 26.1889 87.7647 26.7667 89.498 26.7667C91.2314 26.7667 92.6092 26.1889 93.6314 24.9444Z" fill="white"/>
<path d="M69.7506 9.96667C71.3506 10.9444 72.5951 12.2778 73.484 14.0556C74.3729 15.8333 74.8617 17.9222 74.8617 20.2333C74.8617 22.5889 74.3729 24.6333 73.484 26.3667C72.5951 28.1444 71.3506 29.4778 69.7506 30.4555C68.1506 31.4333 66.3284 31.8778 64.284 31.8778C61.3506 31.8778 59.0395 30.8555 57.3951 28.7222V40.5H51.1284V8.76667H56.5951L57.2173 11.9222C57.9729 10.9 58.9506 10.0556 60.1506 9.43333C61.3506 8.81111 62.7284 8.5 64.3284 8.5C66.3729 8.5 68.1506 8.98889 69.7506 9.96667ZM66.9506 24.9444C67.9729 23.7 68.5062 22.1 68.5062 20.1444C68.5062 18.1889 67.9729 16.6333 66.9506 15.4333C65.884 14.2333 64.5506 13.6111 62.8617 13.6111C61.1729 13.6111 59.7951 14.2333 58.8173 15.4333C57.7951 16.6333 57.3062 18.1889 57.3062 20.1444C57.3062 22.1444 57.7951 23.7444 58.8173 24.9444C59.7951 26.1889 61.1729 26.7667 62.8617 26.7667C64.5506 26.7667 65.884 26.1889 66.9506 24.9444Z" fill="white"/>
<path d="M48.7047 26.3222V31.6111H45.5047C42.6158 31.6111 41.1936 30.3667 41.2825 27.8778C40.438 29.2111 39.4158 30.1889 38.2158 30.8555C36.9713 31.5667 35.5047 31.8778 33.8158 31.8778C31.238 31.8778 29.1936 31.3 27.638 30.1444C26.0825 28.9889 25.3269 27.3 25.3269 25.1667C25.3269 22.7667 26.2158 20.9 27.9936 19.5667C29.7713 18.2333 32.3936 17.5667 35.8158 17.5667H40.3491V16.4556C40.3491 15.4333 39.9491 14.6333 39.1936 14.0111C38.3936 13.3889 37.3713 13.0778 36.0825 13.0778C34.9269 13.0778 33.9491 13.3444 33.238 13.8333C32.4825 14.3667 32.038 15.0333 31.9047 15.8778H25.8602C26.038 13.5667 27.1047 11.7444 28.9713 10.4556C30.838 9.16667 33.2825 8.5 36.3936 8.5C39.5936 8.5 42.0825 9.21111 43.8602 10.6333C45.638 12.0556 46.5269 14.1444 46.5269 16.8111V24.8555C46.5269 25.4333 46.6158 25.8333 46.8824 26.0111C47.1047 26.2333 47.4602 26.3222 47.9936 26.3222H48.7047ZM40.3491 21.7444H35.7713C34.438 21.7444 33.4158 22.0111 32.7047 22.5444C31.9936 23.0778 31.638 23.7889 31.638 24.7222C31.638 25.5222 31.9047 26.1889 32.5269 26.6333C33.1491 27.1222 33.9491 27.3444 35.0158 27.3444C36.6158 27.3444 37.9047 26.9 38.8825 25.9667C39.8158 25.0333 40.3047 23.7889 40.3491 22.1889V21.7444Z" fill="white"/>
<path d="M19.6444 10.9889C21.3778 12.6778 22.2667 15.3889 22.2667 19.2111V31.6111H16V19.4778C16 17.6111 15.6 16.1444 14.8444 15.1667C14.0444 14.1889 12.8889 13.6556 11.3778 13.6556C9.77778 13.6556 8.48889 14.2333 7.6 15.3C6.71111 16.4111 6.26666 17.9222 6.26666 19.8778V31.6111H0V0.5H6.26666V11.5667C7.95555 9.52222 10.1778 8.5 13.0222 8.5C15.6889 8.5 17.9111 9.34444 19.6444 10.9889Z" fill="white"/>
</svg>
